<svg width="3381" height="513" viewBox="0 0 3381 513" fill="none" xmlns="http://www.w3.org/2000/svg">
<mask id="mask0_251_739" style="mask-type:alpha" maskUnits="userSpaceOnUse" x="0" y="0" width="3381" height="513">
<rect width="3381" height="513" transform="matrix(1 0 0 -1 0 513)" fill="#D9D9D9"/>
</mask>
<g mask="url(#mask0_251_739)">
<ellipse rx="168.111" ry="172" transform="matrix(1 0 0 -1 871.208 215.003)" fill="#D8EDEE"/>
<ellipse rx="110.755" ry="113.5" transform="matrix(1 0 0 -1 650.687 184.501)" fill="#D8EDEE"/>
<ellipse rx="183.933" ry="188" transform="matrix(1 0 0 -1 433.132 67.002)" fill="#D8EDEE"/>
<ellipse rx="255.132" ry="261" transform="matrix(1 0 0 -1 1673.19 86.0029)" fill="#D8EDEE"/>
<ellipse rx="137.455" ry="140.5" transform="matrix(1 0 0 -1 1061.07 226.502)" fill="#D8EDEE"/>
<ellipse rx="189.866" ry="217" transform="matrix(1 0 0 -1 1311.26 110.001)" fill="#D8EDEE"/>
<ellipse rx="124.6" ry="127.5" transform="matrix(1 0 0 -1 2755.04 192.501)" fill="#D8EDEE"/>
<ellipse rx="111.25" ry="102" transform="matrix(1 0 0 -1 3169.87 191.002)" fill="#D8EDEE"/>
<ellipse rx="168.111" ry="172" transform="matrix(1 0 0 -1 93.944 126.001)" fill="#D8EDEE"/>
<ellipse rx="168.111" ry="172" transform="matrix(1 0 0 -1 3359.24 201.003)" fill="#D8EDEE"/>
<ellipse rx="247.716" ry="253" transform="matrix(1 0 0 -1 2228.45 175.003)" fill="#D8EDEE"/>
<ellipse rx="168.111" ry="172" transform="matrix(1 0 0 -1 2970.61 175.003)" fill="#D8EDEE"/>
<ellipse rx="129.594" ry="151.237" transform="matrix(0.987454 0.157909 0.19991 -0.979814 2567.13 219.355)" fill="#D8EDEE"/>
<ellipse rx="168.111" ry="172" transform="matrix(1 0 0 -1 1924.37 298.002)" fill="#D8EDEE"/>
<ellipse rx="103.833" ry="106" transform="matrix(1 0 0 -1 262.055 201.002)" fill="#D8EDEE"/>
<ellipse rx="168.111" ry="172" transform="matrix(1 0 0 -1 871.208 52.001)" fill="white"/>
<ellipse rx="110.755" ry="113.5" transform="matrix(1 0 0 -1 650.687 21.501)" fill="white"/>
<ellipse rx="183.933" ry="188" transform="matrix(1 0 0 -1 433.132 -95.9971)" fill="white"/>
<ellipse rx="255.132" ry="261" transform="matrix(1 0 0 -1 1673.19 -76.9971)" fill="white"/>
<ellipse rx="137.455" ry="140.5" transform="matrix(1 0 0 -1 1061.07 63.502)" fill="white"/>
<ellipse rx="189.866" ry="217" transform="matrix(1 0 0 -1 1311.26 -52.998)" fill="white"/>
<ellipse rx="124.6" ry="127.5" transform="matrix(1 0 0 -1 2755.04 -32.499)" fill="white"/>
<ellipse rx="111.25" ry="102" transform="matrix(1 0 0 -1 3169.87 11.001)" fill="white"/>
<ellipse rx="168.111" ry="172" transform="matrix(1 0 0 -1 93.944 -36.999)" fill="white"/>
<ellipse rx="168.111" ry="172" transform="matrix(1 0 0 -1 3359.24 38.0029)" fill="white"/>
<ellipse rx="247.716" ry="253" transform="matrix(1 0 0 -1 2228.45 12.001)" fill="white"/>
<ellipse rx="168.111" ry="172" transform="matrix(1 0 0 -1 2970.61 12.0029)" fill="white"/>
<ellipse rx="129.594" ry="151.237" transform="matrix(0.987454 0.157909 0.19991 -0.979814 2567.13 76.6515)" fill="white"/>
<ellipse rx="168.111" ry="172" transform="matrix(1 0 0 -1 1924.37 135.002)" fill="white"/>
<ellipse rx="103.833" ry="106" transform="matrix(1 0 0 -1 262.055 38.0029)" fill="white"/>
</g>
</svg>
