<svg width="3381" height="513" viewBox="0 0 3381 513" fill="none" xmlns="http://www.w3.org/2000/svg">
<mask id="mask0_233_63" style="mask-type:alpha" maskUnits="userSpaceOnUse" x="0" y="0" width="3381" height="513">
<rect width="3381" height="513" fill="#D9D9D9"/>
</mask>
<g mask="url(#mask0_233_63)">
<ellipse cx="871.208" cy="298" rx="168.111" ry="172" fill="#D8EDEE"/>
<ellipse cx="650.687" cy="328.5" rx="110.755" ry="113.5" fill="#D8EDEE"/>
<ellipse cx="433.132" cy="446" rx="183.933" ry="188" fill="#D8EDEE"/>
<ellipse cx="1673.19" cy="427" rx="255.132" ry="261" fill="#D8EDEE"/>
<ellipse cx="1061.07" cy="286.5" rx="137.455" ry="140.5" fill="#D8EDEE"/>
<ellipse cx="1311.26" cy="403" rx="189.866" ry="217" fill="#D8EDEE"/>
<ellipse cx="2755.04" cy="320.5" rx="124.6" ry="127.5" fill="#D8EDEE"/>
<ellipse cx="3169.87" cy="322" rx="111.25" ry="102" fill="#D8EDEE"/>
<ellipse cx="93.9442" cy="387" rx="168.111" ry="172" fill="#D8EDEE"/>
<ellipse cx="3359.24" cy="312" rx="168.111" ry="172" fill="#D8EDEE"/>
<ellipse cx="2228.45" cy="338" rx="247.716" ry="253" fill="#D8EDEE"/>
<ellipse cx="2970.61" cy="338" rx="168.111" ry="172" fill="#D8EDEE"/>
<ellipse rx="129.594" ry="151.237" transform="matrix(0.987454 -0.157909 0.19991 0.979814 2567.13 293.648)" fill="#D8EDEE"/>
<ellipse cx="1924.37" cy="215" rx="168.111" ry="172" fill="#D8EDEE"/>
<ellipse cx="262.055" cy="312" rx="103.833" ry="106" fill="#D8EDEE"/>
<ellipse cx="871.208" cy="461" rx="168.111" ry="172" fill="white"/>
<ellipse cx="650.687" cy="491.5" rx="110.755" ry="113.5" fill="white"/>
<ellipse cx="433.132" cy="609" rx="183.933" ry="188" fill="white"/>
<ellipse cx="1673.19" cy="590" rx="255.132" ry="261" fill="white"/>
<ellipse cx="1061.07" cy="449.5" rx="137.455" ry="140.5" fill="white"/>
<ellipse cx="1311.26" cy="566" rx="189.866" ry="217" fill="white"/>
<ellipse cx="2755.04" cy="545.5" rx="124.6" ry="127.5" fill="white"/>
<ellipse cx="3169.87" cy="502" rx="111.25" ry="102" fill="white"/>
<ellipse cx="93.9442" cy="550" rx="168.111" ry="172" fill="white"/>
<ellipse cx="3359.24" cy="475" rx="168.111" ry="172" fill="white"/>
<ellipse cx="2228.45" cy="501" rx="247.716" ry="253" fill="white"/>
<ellipse cx="2970.61" cy="501" rx="168.111" ry="172" fill="white"/>
<ellipse rx="129.594" ry="151.237" transform="matrix(0.987454 -0.157909 0.19991 0.979814 2567.13 436.351)" fill="white"/>
<ellipse cx="1924.37" cy="378" rx="168.111" ry="172" fill="white"/>
<ellipse cx="262.055" cy="475" rx="103.833" ry="106" fill="white"/>
</g>
</svg>
